<?xml version="1.0" encoding="UTF-8" standalone="no"?>
<!-- Created with Inkscape (http://www.inkscape.org/) -->

<svg
   xmlns:dc="http://purl.org/dc/elements/1.1/"
   xmlns:cc="http://creativecommons.org/ns#"
   xmlns:rdf="http://www.w3.org/1999/02/22-rdf-syntax-ns#"
   xmlns:svg="http://www.w3.org/2000/svg"
   xmlns="http://www.w3.org/2000/svg"
   xmlns:sodipodi="http://sodipodi.sourceforge.net/DTD/sodipodi-0.dtd"
   xmlns:inkscape="http://www.inkscape.org/namespaces/inkscape"
   width="16"
   height="16"
   viewBox="0 0 4.2333332 4.2333335"
   version="1.1"
   id="svg4501"
   sodipodi:docname="Tablet_MU.svg"
   inkscape:version="0.92.1 r15371"
   inkscape:export-filename="/home/kartashov/Изображения/Закладка/Tablet_MU.png"
   inkscape:export-xdpi="200"
   inkscape:export-ydpi="200">
  <defs
     id="defs4495">
    <inkscape:path-effect
       effect="spiro"
       id="path-effect5095"
       is_visible="true" />
  </defs>
  <sodipodi:namedview
     id="base"
     pagecolor="#ffffff"
     bordercolor="#666666"
     borderopacity="1.0"
     inkscape:pageopacity="0.0"
     inkscape:pageshadow="2"
     inkscape:zoom="32"
     inkscape:cx="0.606835"
     inkscape:cy="6.432036"
     inkscape:document-units="mm"
     inkscape:current-layer="layer1"
     showgrid="false"
     units="px"
     inkscape:showpageshadow="false"
     inkscape:snap-global="true"
     inkscape:snap-bbox="true"
     inkscape:snap-bbox-midpoints="true"
     inkscape:snap-grids="true"
     inkscape:bbox-nodes="true"
     inkscape:snap-bbox-edge-midpoints="true"
     inkscape:bbox-paths="true"
     inkscape:object-paths="true"
     inkscape:snap-intersection-paths="true"
     inkscape:window-width="1920"
     inkscape:window-height="1016"
     inkscape:window-x="0"
     inkscape:window-y="27"
     inkscape:window-maximized="1"
     inkscape:snap-page="true"
     inkscape:pagecheckerboard="true">
    <inkscape:grid
       type="xygrid"
       id="grid5048" />
  </sodipodi:namedview>
  <metadata
     id="metadata4498">
    <rdf:RDF>
      <cc:Work
         rdf:about="">
        <dc:format>image/svg+xml</dc:format>
        <dc:type
           rdf:resource="http://purl.org/dc/dcmitype/StillImage" />
        <dc:title />
      </cc:Work>
    </rdf:RDF>
  </metadata>
  <g
     inkscape:label="Layer 1"
     inkscape:groupmode="layer"
     id="layer1"
     transform="translate(0,-292.76665)">
    <path
       style="opacity:1;vector-effect:none;fill:#2f2f2f;fill-opacity:1;fill-rule:evenodd;stroke:none;stroke-width:0.7040149;stroke-linecap:butt;stroke-linejoin:miter;stroke-miterlimit:4;stroke-dasharray:none;stroke-dashoffset:0;stroke-opacity:1"
       d="m 0.5291667,293.29621 v 3.17874 c 0,0.12885 0.134937,0.26045 0.264583,0.26045 h 2.6458339 c 0.1367272,0 0.2645831,-0.13713 0.2645831,-0.26562 v -3.17357 c 0,-0.13372 -0.1438299,-0.26498 -0.263489,-0.26498 h -2.645551 c -0.130923,0 -0.26596,0.12967 -0.26596,0.26498 z m 0.264583,-4e-4 h 2.6458339 v 2.64584 H 0.7937497 Z m 1.322917,2.91042 c 0.07306,0 0.132292,0.0592 0.132292,0.13229 0,0.0731 -0.05923,0.13229 -0.132292,0.13229 -0.07306,0 -0.132292,-0.0592 -0.132292,-0.13229 0,-0.0731 0.05923,-0.13229 0.132292,-0.13229 z"
       id="rect5046-1"
       inkscape:connector-curvature="0"
       sodipodi:nodetypes="ccccccccccccccsssss" />
    <rect
       style="opacity:1;vector-effect:none;fill:#bebebe;fill-opacity:1;fill-rule:evenodd;stroke:none;stroke-width:0.5;stroke-linecap:butt;stroke-linejoin:miter;stroke-miterlimit:4;stroke-dasharray:none;stroke-dashoffset:0;stroke-opacity:1"
       id="rect5048"
       width="2.6458337"
       height="2.6458399"
       x="0.79374969"
       y="293.29581" />
    <path
       inkscape:connector-curvature="0"
       style="display:inline;opacity:1;vector-effect:none;fill:#2f2f2f;fill-opacity:1;fill-rule:evenodd;stroke:none;stroke-width:0.08103272px;stroke-linecap:butt;stroke-linejoin:miter;stroke-miterlimit:4;stroke-dasharray:none;stroke-dashoffset:0;stroke-opacity:1"
       d="m 2.3186927,293.82445 -0.109689,0.15356 c -0.05981,-0.008 -0.12052,-0.009 -0.180401,-10e-4 l -0.108745,-0.15247 -0.221067,0.0914 0.03057,0.18473 c -0.04834,0.0365 -0.09134,0.0794 -0.127751,0.12776 l -0.185617,-0.0313 -0.0917,0.22085 0.153525,0.10986 c -0.0086,0.0598 -0.0088,0.12037 -6.192e-4,0.18017 l -0.1527018,0.109 0.09123,0.22106 0.185173,-0.0308 c 0.03637,0.0487 0.07962,0.0913 0.127601,0.12769 l -0.03122,0.18582 0.220862,0.0917 0.109718,-0.15322 c 0.05973,0.007 0.12044,0.009 0.180673,0 l 0.108773,0.1528 0.220984,-0.0915 -0.03059,-0.1851 c 0.04823,-0.0364 0.09114,-0.0792 0.127488,-0.12751 l 0.18588,0.0311 0.0917,-0.22084 -0.153457,-0.1096 c 0.0086,-0.0599 0.0088,-0.12053 5.318e-4,-0.1804 l 0.1524332,-0.10878 -0.09124,-0.22103 -0.184802,0.0307 c -0.03639,-0.0485 -0.07946,-0.0915 -0.127815,-0.12802 l 0.03116,-0.18567 z m -0.07593,0.49489 a 0.32413096,0.32413096 0 0 1 0.175066,0.42365 0.32413096,0.32413096 0 0 1 -0.423646,0.17507 0.32413096,0.32413096 0 0 1 -0.175062,-0.42364 0.32413096,0.32413096 0 0 1 0.423642,-0.17508 z"
       id="path21018-9" />
    <circle
       style="opacity:1;vector-effect:none;fill:#ffffff;fill-opacity:1;fill-rule:evenodd;stroke:none;stroke-width:0.30119321px;stroke-linecap:butt;stroke-linejoin:miter;stroke-miterlimit:4;stroke-dasharray:none;stroke-dashoffset:0;stroke-opacity:1"
       id="path4489"
       cx="2.1166666"
       cy="296.33853"
       r="0.13228309" />
  </g>
</svg>
